<svg width="131" height="131" viewBox="0 0 131 131" fill="none" xmlns="http://www.w3.org/2000/svg" style="color: #fff;">
<path d="M0 0H86C110.853 0 131 20.1472 131 45V131H45C20.1472 131 0 110.853 0 86V0Z" fill="currentColor"/>
<path d="M11.5 47.875H35.8V56.35H21.25V65.2H35.8V73.975H21.25V91H11.5V47.875ZM63.475 68.875V53.05L54.7 47.875H39.175V56.35H53.725V65.2H39.175V73.975H54.7L63.475 68.875Z" fill="#0b5394"/>
<path d="M68.7432 47.875H77.2932L92.7432 62.425V73.75L78.1932 60.025V91H68.7432V47.875ZM120.418 47.875H111.943L96.4182 62.425V73.75L110.968 60.025V91H120.418V47.875Z" fill="#0b5394"/>
</svg>
