<svg width="278" height="131" viewBox="0 0 278 131" fill="none" xmlns="http://www.w3.org/2000/svg">
<path d="M0 0H86C110.853 0 131 20.1472 131 45V131H45C20.1472 131 0 110.853 0 86V0Z" fill="currentColor"/>
<path d="M11.5 47.875H35.8V56.35H21.25V65.2H35.8V73.975H21.25V91H11.5V47.875ZM63.475 68.875V53.05L54.7 47.875H39.175V56.35H53.725V65.2H39.175V73.975H54.7L63.475 68.875Z" fill="#fff"/>
<path d="M68.7432 47.875H77.2932L92.7432 62.425V73.75L78.1932 60.025V91H68.7432V47.875ZM120.418 47.875H111.943L96.4182 62.425V73.75L110.968 60.025V91H120.418V47.875Z" fill="#fff"/>
<path d="M152.941 93L138 53.7788H149.389L157.958 78.2417L166.491 53.7788H177.917L162.976 93H152.941Z" fill="currentColor"/>
<path d="M197.268 43.1221C197.268 44.0498 197.084 44.9165 196.718 45.7222C196.376 46.5278 195.9 47.2358 195.29 47.8462C194.68 48.4321 193.959 48.9082 193.129 49.2744C192.324 49.6162 191.457 49.7871 190.529 49.7871C189.602 49.7871 188.723 49.6162 187.893 49.2744C187.087 48.9082 186.379 48.4321 185.769 47.8462C185.183 47.2358 184.707 46.5278 184.34 45.7222C183.999 44.9165 183.828 44.0498 183.828 43.1221C183.828 42.2188 183.999 41.3643 184.34 40.5586C184.707 39.7285 185.183 39.0205 185.769 38.4346C186.379 37.8242 187.087 37.3481 187.893 37.0063C188.723 36.6401 189.602 36.457 190.529 36.457C191.457 36.457 192.324 36.6401 193.129 37.0063C193.959 37.3481 194.68 37.8242 195.29 38.4346C195.9 39.0205 196.376 39.7285 196.718 40.5586C197.084 41.3643 197.268 42.2188 197.268 43.1221ZM195.546 93H185.476V53.7788H195.546V93Z" fill="currentColor"/>
<path d="M226.616 93C224.199 93 221.928 92.5483 219.804 91.645C217.68 90.7173 215.812 89.46 214.201 87.873C212.614 86.2617 211.357 84.394 210.429 82.27C209.526 80.146 209.074 77.8755 209.074 75.4585V63.813H204.204V53.8521H209.074V38.1782H219.035V53.8521H234.196V63.813H219.035V75.4585C219.035 76.5083 219.23 77.4971 219.621 78.4248C220.012 79.3281 220.549 80.1216 221.232 80.8052C221.916 81.4888 222.722 82.0381 223.649 82.4531C224.577 82.8438 225.566 83.0391 226.616 83.0391H234.196V93H226.616Z" fill="currentColor"/>
<path d="M259.187 83.4053C259.577 83.5273 259.968 83.6128 260.358 83.6616C260.749 83.686 261.14 83.6982 261.53 83.6982C262.507 83.6982 263.447 83.564 264.35 83.2954C265.253 83.0269 266.096 82.6484 266.877 82.1602C267.683 81.6475 268.391 81.0371 269.001 80.3291C269.636 79.5967 270.148 78.791 270.539 77.9121L277.863 85.2729C276.936 86.5913 275.861 87.7754 274.641 88.8252C273.444 89.875 272.138 90.7661 270.722 91.4985C269.331 92.231 267.854 92.7803 266.291 93.1465C264.753 93.5371 263.166 93.7324 261.53 93.7324C258.771 93.7324 256.171 93.2197 253.73 92.1943C251.313 91.1689 249.189 89.7407 247.358 87.9097C245.551 86.0786 244.123 83.9058 243.073 81.3911C242.023 78.8521 241.499 76.0688 241.499 73.0415C241.499 69.9409 242.023 67.1089 243.073 64.5454C244.123 61.9819 245.551 59.7969 247.358 57.9902C249.189 56.1836 251.313 54.7798 253.73 53.7788C256.171 52.7778 258.771 52.2773 261.53 52.2773C263.166 52.2773 264.765 52.4727 266.328 52.8633C267.89 53.2539 269.367 53.8154 270.759 54.5479C272.175 55.2803 273.493 56.1836 274.714 57.2578C275.935 58.3076 277.009 59.4917 277.937 60.8101L259.187 83.4053ZM264.313 62.7876C263.85 62.6167 263.386 62.5068 262.922 62.458C262.482 62.4092 262.019 62.3848 261.53 62.3848C260.163 62.3848 258.869 62.6411 257.648 63.1538C256.452 63.6421 255.402 64.3501 254.499 65.2778C253.62 66.2056 252.924 67.3286 252.412 68.647C251.899 69.9409 251.643 71.4058 251.643 73.0415C251.643 73.4077 251.655 73.8228 251.679 74.2866C251.728 74.7505 251.789 75.2266 251.862 75.7148C251.96 76.1787 252.07 76.6304 252.192 77.0698C252.314 77.5093 252.473 77.8999 252.668 78.2417L264.313 62.7876Z" fill="currentColor"/>
</svg>
