<svg width="478" height="131" viewBox="0 0 478 131" fill="none" xmlns="http://www.w3.org/2000/svg" style="color: #3f51b5;">
<path d="M0 0H86C110.853 0 131 20.1472 131 45V131H45C20.1472 131 0 110.853 0 86V0Z" fill="currentColor"/>
<path d="M11.5 47.875H35.8V56.35H21.25V65.2H35.8V73.975H21.25V91H11.5V47.875ZM63.475 68.875V53.05L54.7 47.875H39.175V56.35H53.725V65.2H39.175V73.975H54.7L63.475 68.875Z" fill="white"/>
<path d="M68.7432 47.875H77.2932L92.7432 62.425V73.75L78.1932 60.025V91H68.7432V47.875ZM120.418 47.875H111.943L96.4182 62.425V73.75L110.968 60.025V91H120.418V47.875Z" fill="white"/>
<path d="M153.195 45.1016V59H150.312V24.875H161.938C165.484 24.875 168.281 25.7812 170.328 27.5938C172.391 29.4062 173.422 31.8984 173.422 35.0703C173.422 38.2734 172.43 40.75 170.445 42.5C168.477 44.2344 165.617 45.1016 161.867 45.1016H153.195ZM153.195 42.6641H161.938C164.734 42.6641 166.867 42 168.336 40.6719C169.805 39.3438 170.539 37.4922 170.539 35.1172C170.539 32.7578 169.805 30.8828 168.336 29.4922C166.883 28.0859 164.812 27.3672 162.125 27.3359H153.195V42.6641Z" fill="currentColor"/>
<path d="M213.761 44.7969H203.847V59H200.94V24.875H212.026C215.667 24.875 218.511 25.7578 220.557 27.5234C222.604 29.2891 223.628 31.7578 223.628 34.9297C223.628 37.1172 222.987 39.0469 221.706 40.7188C220.425 42.3906 218.706 43.5469 216.55 44.1875L225.081 58.6953V59H222.011L213.761 44.7969ZM203.847 42.3359H212.682C215.104 42.3359 217.05 41.6484 218.518 40.2734C219.987 38.8984 220.722 37.1172 220.722 34.9297C220.722 32.5234 219.956 30.6562 218.425 29.3281C216.893 28 214.745 27.3359 211.979 27.3359H203.847V42.3359Z" fill="currentColor"/>
<path d="M277.818 43.7891C277.818 46.9297 277.271 49.6875 276.177 52.0625C275.099 54.4375 273.552 56.2656 271.537 57.5469C269.521 58.8281 267.193 59.4688 264.552 59.4688C260.568 59.4688 257.349 58.0469 254.896 55.2031C252.443 52.3438 251.217 48.4922 251.217 43.6484V40.1328C251.217 37.0234 251.763 34.2734 252.857 31.8828C253.967 29.4766 255.529 27.6328 257.545 26.3516C259.56 25.0547 261.881 24.4062 264.506 24.4062C267.131 24.4062 269.443 25.0391 271.443 26.3047C273.459 27.5703 275.013 29.3594 276.107 31.6719C277.201 33.9844 277.771 36.6641 277.818 39.7109V43.7891ZM274.935 40.0859C274.935 35.9766 274.006 32.7578 272.146 30.4297C270.287 28.1016 267.74 26.9375 264.506 26.9375C261.334 26.9375 258.802 28.1094 256.912 30.4531C255.037 32.7812 254.099 36.0391 254.099 40.2266V43.7891C254.099 47.8359 255.037 51.0469 256.912 53.4219C258.787 55.7812 261.334 56.9609 264.552 56.9609C267.818 56.9609 270.365 55.7969 272.193 53.4688C274.021 51.125 274.935 47.8672 274.935 43.6953V40.0859Z" fill="currentColor"/>
<path d="M321.274 24.875H324.18V48.8516C324.18 52.0859 323.243 54.6641 321.368 56.5859C319.508 58.5078 317.008 59.4688 313.868 59.4688C310.555 59.4688 308.008 58.6016 306.227 56.8672C304.446 55.1328 303.555 52.7109 303.555 49.6016H306.438C306.438 52.0703 307.087 53.9297 308.383 55.1797C309.68 56.4141 311.508 57.0312 313.868 57.0312C316.04 57.0312 317.805 56.3125 319.165 54.875C320.54 53.4375 321.243 51.4844 321.274 49.0156V24.875Z" fill="currentColor"/>
<path d="M372.605 42.6406H356.644V56.5625H374.996V59H353.761V24.875H374.878V27.3359H356.644V40.2031H372.605V42.6406Z" fill="currentColor"/>
<path d="M426.373 48.3594C425.983 51.9531 424.694 54.7031 422.506 56.6094C420.334 58.5156 417.436 59.4688 413.811 59.4688C411.28 59.4688 409.038 58.8359 407.084 57.5703C405.147 56.3047 403.647 54.5156 402.584 52.2031C401.522 49.875 400.983 47.2188 400.967 44.2344V39.8047C400.967 36.7734 401.498 34.0859 402.561 31.7422C403.623 29.3984 405.147 27.5938 407.131 26.3281C409.131 25.0469 411.428 24.4062 414.022 24.4062C417.678 24.4062 420.561 25.3984 422.67 27.3828C424.795 29.3516 426.03 32.0781 426.373 35.5625H423.467C422.748 29.7656 419.6 26.8672 414.022 26.8672C410.928 26.8672 408.459 28.0234 406.616 30.3359C404.788 32.6484 403.873 35.8438 403.873 39.9219V44.0938C403.873 48.0312 404.764 51.1719 406.545 53.5156C408.342 55.8594 410.764 57.0312 413.811 57.0312C416.827 57.0312 419.1 56.3125 420.631 54.875C422.163 53.4219 423.108 51.25 423.467 48.3594H426.373Z" fill="currentColor"/>
<path d="M476.954 27.3359H465.259V59H462.376V27.3359H450.704V24.875H476.954V27.3359Z" fill="currentColor"/>
<path d="M158.234 80.875L167 105.625L175.719 80.875H184.953V115H177.898V105.672L178.602 89.5703L169.391 115H164.562L155.375 89.5938L156.078 105.672V115H149.047V80.875H158.234Z" fill="currentColor"/>
<path d="M210.781 107.969H198.453L196.109 115H188.633L201.336 80.875H207.852L220.625 115H213.148L210.781 107.969ZM200.352 102.273H208.883L204.594 89.5L200.352 102.273Z" fill="currentColor"/>
<path d="M251.562 115H244.531L230.844 92.5469V115H223.812V80.875H230.844L244.555 103.375V80.875H251.562V115Z" fill="currentColor"/>
<path d="M277.391 107.969H265.062L262.719 115H255.242L267.945 80.875H274.461L287.234 115H279.758L277.391 107.969ZM266.961 102.273H275.492L271.203 89.5L266.961 102.273Z" fill="currentColor"/>
<path d="M316.906 110.688C315.641 112.203 313.852 113.383 311.539 114.227C309.227 115.055 306.664 115.469 303.852 115.469C300.898 115.469 298.305 114.828 296.07 113.547C293.852 112.25 292.133 110.375 290.914 107.922C289.711 105.469 289.094 102.586 289.062 99.2734V96.9531C289.062 93.5469 289.633 90.6016 290.773 88.1172C291.93 85.6172 293.586 83.7109 295.742 82.3984C297.914 81.0703 300.453 80.4062 303.359 80.4062C307.406 80.4062 310.57 81.375 312.852 83.3125C315.133 85.2344 316.484 88.0391 316.906 91.7266H310.062C309.75 89.7734 309.055 88.3438 307.977 87.4375C306.914 86.5312 305.445 86.0781 303.57 86.0781C301.18 86.0781 299.359 86.9766 298.109 88.7734C296.859 90.5703 296.227 93.2422 296.211 96.7891V98.9688C296.211 102.547 296.891 105.25 298.25 107.078C299.609 108.906 301.602 109.82 304.227 109.82C306.867 109.82 308.75 109.258 309.875 108.133V102.25H303.477V97.0703H316.906V110.688Z" fill="currentColor"/>
<path d="M343.156 100.211H329.656V109.352H345.5V115H322.625V80.875H345.453V86.5703H329.656V94.7031H343.156V100.211Z" fill="currentColor"/>
<path d="M358.812 80.875L367.578 105.625L376.297 80.875H385.531V115H378.477V105.672L379.18 89.5703L369.969 115H365.141L355.953 89.5938L356.656 105.672V115H349.625V80.875H358.812Z" fill="currentColor"/>
<path d="M412.203 100.211H398.703V109.352H414.547V115H391.672V80.875H414.5V86.5703H398.703V94.7031H412.203V100.211Z" fill="currentColor"/>
<path d="M446.422 115H439.391L425.703 92.5469V115H418.672V80.875H425.703L439.414 103.375V80.875H446.422V115Z" fill="currentColor"/>
<path d="M477.547 86.5703H467.094V115H460.062V86.5703H449.75V80.875H477.547V86.5703Z" fill="currentColor"/>
</svg>
